<?xml version="1.0" standalone="no"?>
<!DOCTYPE svg PUBLIC "-//W3C//DTD SVG 20010904//EN"
 "http://www.w3.org/TR/2001/REC-SVG-20010904/DTD/svg10.dtd">
<svg version="1.0" xmlns="http://www.w3.org/2000/svg"
 width="1920.000000pt" height="950.000000pt" viewBox="0 0 1920.000000 950.000000"
 preserveAspectRatio="xMidYMid meet">
<metadata>
Created by potrace 1.16, written by Peter Selinger 2001-2019
</metadata>
<g transform="translate(0.000000,950.000000) scale(0.100000,-0.100000)"
fill="#000000" stroke="none">
<path d="M3853 9300 c-106 -61 -251 -220 -359 -393 -79 -126 -272 -459 -408
-702 -314 -559 -430 -755 -621 -1055 -191 -298 -329 -537 -524 -903 -220 -413
-282 -497 -370 -497 -18 0 -76 23 -142 58 -109 57 -111 57 -197 57 -76 0 -95
-4 -146 -29 -32 -16 -89 -57 -126 -92 -215 -203 -373 -603 -447 -1129 -24
-179 -25 -716 0 -880 9 -60 24 -170 34 -243 25 -188 16 -226 -120 -509 -120
-250 -144 -312 -153 -387 -6 -49 -4 -57 19 -80 21 -21 36 -26 77 -26 63 0 97
17 144 71 45 53 75 143 82 250 8 113 31 161 90 189 58 29 89 23 218 -42 56
-28 142 -61 195 -75 126 -32 298 -41 397 -20 476 102 1098 1014 1489 2182 68
203 207 693 276 970 135 543 166 862 103 1048 -21 62 -84 130 -164 176 -160
92 -149 197 51 476 99 138 224 359 388 685 285 569 392 854 342 913 -20 25
-70 20 -128 -13z m-761 -2561 c23 -44 22 -83 -2 -253 -59 -397 -254 -1200
-381 -1563 -47 -135 -71 -185 -107 -228 -37 -44 -72 -125 -72 -166 0 -102 -90
-349 -196 -542 -264 -477 -576 -800 -904 -934 -410 -168 -691 83 -580 521 40
162 93 268 248 503 51 78 130 213 175 300 63 120 90 163 116 180 42 29 50 29
92 0 22 -15 47 -48 72 -97 36 -72 47 -114 92 -348 22 -116 49 -183 91 -226 30
-30 42 -36 78 -36 90 0 158 89 232 301 53 151 129 291 219 399 165 199 268
633 181 763 -17 25 -30 33 -60 35 -34 3 -43 -2 -80 -40 -77 -80 -179 -316
-261 -603 -42 -145 -56 -178 -93 -217 -38 -41 -76 -37 -122 11 -101 106 -159
353 -147 616 15 311 122 502 554 982 181 203 404 433 503 521 206 184 304 218
352 121z m-1834 -1155 c47 -19 87 -57 120 -114 26 -44 27 -49 26 -200 0 -135
-4 -168 -27 -254 -37 -137 -78 -219 -143 -288 -98 -103 -242 -445 -264 -629
-17 -136 -50 -160 -195 -140 -89 12 -121 30 -148 82 -25 46 -18 130 27 326 19
84 46 226 61 315 60 370 91 484 178 651 61 117 137 205 209 241 59 30 103 33
156 10z"/>
<path d="M15646 9129 c-52 -35 -110 -106 -149 -185 -47 -93 -109 -377 -197
-904 -80 -472 -141 -751 -220 -995 -53 -166 -80 -274 -91 -374 -11 -98 -36
-201 -84 -351 -58 -183 -99 -422 -140 -825 -83 -822 -164 -1123 -309 -1151
-113 -21 -348 111 -502 281 -94 103 -150 191 -235 369 -40 86 -77 156 -80 156
-4 0 -51 -42 -104 -92 -110 -104 -217 -238 -271 -337 -101 -185 -143 -243
-257 -359 -220 -222 -463 -316 -617 -237 -124 63 -165 123 -176 257 -3 40 1
177 10 304 26 377 20 467 -34 528 -27 30 -32 31 -102 30 -94 -1 -169 -23 -245
-74 -205 -138 -623 -558 -762 -766 -39 -57 -53 -91 -75 -180 -39 -158 -63
-203 -133 -258 -240 -189 -561 -222 -871 -88 -366 158 -667 547 -747 964 -9
46 -20 146 -25 223 -11 169 -30 265 -81 408 -52 144 -52 187 0 310 22 50 54
139 71 197 17 58 108 335 200 615 93 281 217 663 275 850 134 427 242 734 313
895 52 118 55 129 56 210 1 149 -59 288 -152 354 -52 37 -133 47 -179 22 -51
-26 -63 -81 -98 -441 -71 -726 -253 -1400 -577 -2129 -118 -266 -159 -376
-231 -621 -36 -121 -111 -362 -166 -535 -154 -485 -183 -594 -290 -1101 -119
-565 -128 -694 -50 -734 63 -33 139 -8 182 62 56 92 89 204 152 523 99 503
185 720 287 720 10 0 36 -16 58 -37 39 -35 57 -62 165 -253 144 -256 384 -504
623 -644 191 -112 361 -164 557 -173 202 -9 327 22 486 118 104 63 162 87 245
98 108 16 243 91 505 283 178 130 234 150 311 114 20 -10 92 -64 163 -122 218
-179 308 -220 469 -212 186 9 335 102 651 408 82 80 170 162 195 182 64 52
141 88 187 88 53 0 140 -45 233 -120 175 -142 319 -223 475 -266 137 -38 173
-64 219 -157 46 -95 78 -119 158 -125 83 -6 163 34 250 126 102 108 161 237
193 421 17 102 71 324 121 500 20 69 57 208 84 308 72 267 125 368 295 562 95
109 144 186 186 295 54 141 71 277 48 388 -23 109 -61 154 -176 209 -109 52
-127 78 -131 184 -3 63 4 118 32 255 47 226 76 399 125 750 75 531 131 1021
134 1176 2 78 -1 95 -17 113 -29 32 -82 28 -140 -10z"/>
<path d="M7403 7171 c-17 -11 -49 -44 -71 -73 -79 -105 -101 -168 -112 -319
-11 -142 -37 -262 -89 -418 -184 -551 -619 -1130 -938 -1251 -36 -14 -98 -25
-163 -31 -130 -10 -226 -39 -305 -89 -110 -71 -185 -88 -267 -61 -51 17 -129
104 -156 176 -44 115 -54 209 -46 461 7 254 -1 339 -40 397 -16 23 -31 33 -54
35 -70 7 -137 -104 -227 -374 -70 -207 -137 -381 -250 -639 -48 -110 -104
-244 -125 -298 -79 -198 -238 -420 -360 -501 -56 -37 -149 -6 -176 59 -31 76
-19 155 69 435 25 80 64 225 86 323 46 200 86 329 172 559 118 316 131 485 40
532 -85 45 -138 -4 -216 -199 -20 -50 -56 -126 -79 -170 -62 -114 -108 -246
-155 -435 -134 -549 -188 -1240 -108 -1400 29 -58 56 -72 138 -68 120 6 273
101 454 283 166 166 284 336 419 602 65 128 125 193 176 193 42 0 99 -31 200
-108 144 -110 250 -145 445 -146 150 -1 238 18 399 86 173 73 172 73 483 -80
264 -129 305 -146 407 -162 83 -13 150 1 200 41 105 87 132 278 101 723 -27
390 -19 437 164 1079 61 214 118 427 126 474 18 100 19 241 4 298 -22 81 -79
107 -146 66z m-474 -1927 c62 -52 90 -258 45 -334 -29 -50 -78 -80 -132 -80
-85 0 -265 61 -278 95 -19 49 160 285 248 328 47 24 82 21 117 -9z"/>
<path d="M18464 5295 c-26 -26 -27 -30 -21 -102 5 -64 13 -89 51 -164 25 -48
73 -157 106 -241 90 -226 100 -248 135 -304 51 -80 133 -105 225 -68 96 39 92
166 -11 317 -129 187 -172 257 -215 345 -76 157 -134 222 -211 238 -26 5 -37
1 -59 -21z"/>
<path d="M12955 1953 c-121 -14 -212 -29 -360 -58 -204 -41 -308 -56 -610 -90
-270 -31 -413 -57 -504 -92 -139 -54 -339 -105 -711 -183 -430 -90 -625 -144
-753 -209 -77 -40 -117 -51 -257 -71 -41 -6 -113 -27 -160 -46 -224 -94 -322
-131 -539 -205 -283 -97 -388 -138 -506 -197 -121 -60 -153 -70 -257 -82 -103
-12 -163 -33 -250 -87 -84 -52 -108 -61 -195 -78 -40 -8 -120 -33 -176 -55
-190 -77 -427 -218 -427 -256 0 -48 65 -81 138 -68 100 17 168 44 457 179 265
124 385 170 497 189 103 18 129 28 187 70 78 57 150 87 290 122 163 40 327 95
488 165 272 118 394 168 493 204 116 41 165 64 225 105 74 49 122 62 295 75
186 15 228 27 320 90 77 53 187 85 291 85 38 0 115 5 171 11 95 10 138 20 358
79 250 68 1467 222 1765 224 170 1 188 -4 415 -114 201 -98 227 -102 295 -39
59 55 75 104 48 151 -48 84 -211 145 -473 177 -77 10 -483 13 -555 4z"/>
</g>
</svg>
